ISO-10303-21;
HEADER;
/* Generated by software containing ST-Developer
 * from STEP Tools, Inc. (www.steptools.com) 
 */
/* OPTION: using custom renumber hook */

FILE_DESCRIPTION(
/* description */ ('STEP AP214'),
/* implementation_level */ '2;1');

FILE_NAME(
/* name */ 'TS-103-T-A',
/* time_stamp */ '2026-07-17T19:17:55+02:00',
/* author */ ('License CC BY-ND 4.0'),
/* organization */ ('CADENAS'),
/* preprocessor_version */ 'ST-DEVELOPER v20',
/* originating_system */ 'PARTsolutions',
/* authorisation */ '  ');

FILE_SCHEMA (('AUTOMOTIVE_DESIGN {1 0 10303 214 3 1 1}'));
ENDSEC;

DATA;
#10=PROPERTY_DEFINITION_REPRESENTATION(#14,#12);
#11=PROPERTY_DEFINITION_REPRESENTATION(#15,#13);
#12=REPRESENTATION('',(#16),#1249);
#13=REPRESENTATION('',(#17),#1249);
#14=PROPERTY_DEFINITION('pmi validation property','',#1261);
#15=PROPERTY_DEFINITION('pmi validation property','',#1261);
#16=VALUE_REPRESENTATION_ITEM('number of annotations',COUNT_MEASURE(0.));
#17=VALUE_REPRESENTATION_ITEM('number of views',COUNT_MEASURE(0.));
#18=DEGENERATE_TOROIDAL_SURFACE('',#827,0.00199999999999995,0.0105000000000001,
 .T.);
#19=DEGENERATE_TOROIDAL_SURFACE('',#832,0.00200000000000004,0.00699999999999996,
 .T.);
#20=CONICAL_SURFACE('',#808,0.026,1.30899693899575);
#21=CONICAL_SURFACE('',#822,0.0305,0.349065850398866);
#22=DRAUGHTING_PRE_DEFINED_COLOUR('yellow');
#23=CONTEXT_DEPENDENT_SHAPE_REPRESENTATION(#31,#1263);
#24=CONTEXT_DEPENDENT_SHAPE_REPRESENTATION(#32,#1265);
#25=CONTEXT_DEPENDENT_SHAPE_REPRESENTATION(#33,#1266);
#26=CONTEXT_DEPENDENT_SHAPE_REPRESENTATION(#34,#1267);
#27=NEXT_ASSEMBLY_USAGE_OCCURRENCE('NAUO1','TS-103-G-A_socket',
'TS-103-G-A_socket',#1268,#1269,'');
#28=NEXT_ASSEMBLY_USAGE_OCCURRENCE('NAUO2','-101-G-A_pins',
'-101-G-A_pins',#1268,#1270,'');
#29=NEXT_ASSEMBLY_USAGE_OCCURRENCE('NAUO3','-101-G-A_pins',
'-101-G-A_pins',#1268,#1270,'');
#30=NEXT_ASSEMBLY_USAGE_OCCURRENCE('NAUO4','-101-G-A_pins',
'-101-G-A_pins',#1268,#1270,'');
#31=(
REPRESENTATION_RELATIONSHIP(' ',' ',#761,#760)
REPRESENTATION_RELATIONSHIP_WITH_TRANSFORMATION(#35)
SHAPE_REPRESENTATION_RELATIONSHIP()
);
#32=(
REPRESENTATION_RELATIONSHIP(' ',' ',#762,#760)
REPRESENTATION_RELATIONSHIP_WITH_TRANSFORMATION(#36)
SHAPE_REPRESENTATION_RELATIONSHIP()
);
#33=(
REPRESENTATION_RELATIONSHIP(' ',' ',#762,#760)
REPRESENTATION_RELATIONSHIP_WITH_TRANSFORMATION(#37)
SHAPE_REPRESENTATION_RELATIONSHIP()
);
#34=(
REPRESENTATION_RELATIONSHIP(' ',' ',#762,#760)
REPRESENTATION_RELATIONSHIP_WITH_TRANSFORMATION(#38)
SHAPE_REPRESENTATION_RELATIONSHIP()
);
#35=ITEM_DEFINED_TRANSFORMATION(' ',' ',#763,#807);
#36=ITEM_DEFINED_TRANSFORMATION(' ',' ',#763,#835);
#37=ITEM_DEFINED_TRANSFORMATION(' ',' ',#763,#836);
#38=ITEM_DEFINED_TRANSFORMATION(' ',' ',#763,#837);
#39=SHAPE_REPRESENTATION_RELATIONSHIP('','',#761,#41);
#40=SHAPE_REPRESENTATION_RELATIONSHIP('','',#762,#42);
#41=ADVANCED_BREP_SHAPE_REPRESENTATION('',(#755),#1250);
#42=ADVANCED_BREP_SHAPE_REPRESENTATION('',(#756),#1251);
#43=LINE('',#1071,#103);
#44=LINE('',#1074,#104);
#45=LINE('',#1076,#105);
#46=LINE('',#1078,#106);
#47=LINE('',#1080,#107);
#48=LINE('',#1082,#108);
#49=LINE('',#1084,#109);
#50=LINE('',#1086,#110);
#51=LINE('',#1088,#111);
#52=LINE('',#1090,#112);
#53=LINE('',#1092,#113);
#54=LINE('',#1094,#114);
#55=LINE('',#1096,#115);
#56=LINE('',#1098,#116);
#57=LINE('',#1100,#117);
#58=LINE('',#1102,#118);
#59=LINE('',#1104,#119);
#60=LINE('',#1106,#120);
#61=LINE('',#1108,#121);
#62=LINE('',#1110,#122);
#63=LINE('',#1112,#123);
#64=LINE('',#1115,#124);
#65=LINE('',#1117,#125);
#66=LINE('',#1119,#126);
#67=LINE('',#1121,#127);
#68=LINE('',#1123,#128);
#69=LINE('',#1125,#129);
#70=LINE('',#1127,#130);
#71=LINE('',#1129,#131);
#72=LINE('',#1131,#132);
#73=LINE('',#1133,#133);
#74=LINE('',#1135,#134);
#75=LINE('',#1137,#135);
#76=LINE('',#1139,#136);
#77=LINE('',#1141,#137);
#78=LINE('',#1143,#138);
#79=LINE('',#1145,#139);
#80=LINE('',#1147,#140);
#81=LINE('',#1149,#141);
#82=LINE('',#1151,#142);
#83=LINE('',#1153,#143);
#84=LINE('',#1154,#144);
#85=LINE('',#1156,#145);
#86=LINE('',#1158,#146);
#87=LINE('',#1160,#147);
#88=LINE('',#1162,#148);
#89=LINE('',#1163,#149);
#90=LINE('',#1165,#150);
#91=LINE('',#1168,#151);
#92=LINE('',#1170,#152);
#93=LINE('',#1172,#153);
#94=LINE('',#1174,#154);
#95=LINE('',#1175,#155);
#96=LINE('',#1177,#156);
#97=LINE('',#1180,#157);
#98=LINE('',#1182,#158);
#99=LINE('',#1184,#159);
#100=LINE('',#1186,#160);
#101=LINE('',#1188,#161);
#102=LINE('',#1190,#162);
#103=VECTOR('',#866,39.3700787401575);
#104=VECTOR('',#867,39.3700787401575);
#105=VECTOR('',#868,39.3700787401575);
#106=VECTOR('',#869,39.3700787401575);
#107=VECTOR('',#870,39.3700787401575);
#108=VECTOR('',#871,39.3700787401575);
#109=VECTOR('',#872,39.3700787401575);
#110=VECTOR('',#873,39.3700787401575);
#111=VECTOR('',#874,39.3700787401575);
#112=VECTOR('',#875,39.3700787401575);
#113=VECTOR('',#876,39.3700787401575);
#114=VECTOR('',#877,39.3700787401575);
#115=VECTOR('',#878,39.3700787401575);
#116=VECTOR('',#879,39.3700787401575);
#117=VECTOR('',#880,39.3700787401575);
#118=VECTOR('',#881,39.3700787401575);
#119=VECTOR('',#882,39.3700787401575);
#120=VECTOR('',#883,39.3700787401575);
#121=VECTOR('',#884,39.3700787401575);
#122=VECTOR('',#885,39.3700787401575);
#123=VECTOR('',#888,39.3700787401575);
#124=VECTOR('',#889,39.3700787401575);
#125=VECTOR('',#890,39.3700787401575);
#126=VECTOR('',#891,39.3700787401575);
#127=VECTOR('',#892,39.3700787401575);
#128=VECTOR('',#893,39.3700787401575);
#129=VECTOR('',#894,39.3700787401575);
#130=VECTOR('',#895,39.3700787401575);
#131=VECTOR('',#896,39.3700787401575);
#132=VECTOR('',#897,39.3700787401575);
#133=VECTOR('',#898,39.3700787401575);
#134=VECTOR('',#899,39.3700787401575);
#135=VECTOR('',#900,39.3700787401575);
#136=VECTOR('',#901,39.3700787401575);
#137=VECTOR('',#902,39.3700787401575);
#138=VECTOR('',#903,39.3700787401575);
#139=VECTOR('',#904,39.3700787401575);
#140=VECTOR('',#905,39.3700787401575);
#141=VECTOR('',#906,39.3700787401575);
#142=VECTOR('',#907,39.3700787401575);
#143=VECTOR('',#910,39.3700787401575);
#144=VECTOR('',#911,39.3700787401575);
#145=VECTOR('',#914,39.3700787401575);
#146=VECTOR('',#917,39.3700787401575);
#147=VECTOR('',#920,39.3700787401575);
#148=VECTOR('',#923,39.3700787401575);
#149=VECTOR('',#924,39.3700787401575);
#150=VECTOR('',#927,39.3700787401575);
#151=VECTOR('',#932,39.3700787401575);
#152=VECTOR('',#935,39.3700787401575);
#153=VECTOR('',#938,39.3700787401575);
#154=VECTOR('',#941,39.3700787401575);
#155=VECTOR('',#942,39.3700787401575);
#156=VECTOR('',#945,39.3700787401575);
#157=VECTOR('',#950,39.3700787401575);
#158=VECTOR('',#953,39.3700787401575);
#159=VECTOR('',#956,39.3700787401575);
#160=VECTOR('',#959,39.3700787401575);
#161=VECTOR('',#962,39.3700787401575);
#162=VECTOR('',#965,39.3700787401575);
#163=PLANE('',#773);
#164=PLANE('',#777);
#165=PLANE('',#778);
#166=PLANE('',#779);
#167=PLANE('',#780);
#168=PLANE('',#781);
#169=PLANE('',#782);
#170=PLANE('',#783);
#171=PLANE('',#784);
#172=PLANE('',#785);
#173=PLANE('',#786);
#174=PLANE('',#787);
#175=PLANE('',#788);
#176=PLANE('',#789);
#177=PLANE('',#790);
#178=PLANE('',#791);
#179=PLANE('',#792);
#180=PLANE('',#793);
#181=PLANE('',#794);
#182=PLANE('',#795);
#183=PLANE('',#796);
#184=PLANE('',#797);
#185=PLANE('',#800);
#186=PLANE('',#803);
#187=PLANE('',#806);
#188=PLANE('',#811);
#189=PLANE('',#816);
#190=PLANE('',#820);
#191=PLANE('',#825);
#192=PLANE('',#834);
#193=ORIENTED_EDGE('',*,*,#363,.F.);
#194=ORIENTED_EDGE('',*,*,#364,.T.);
#195=ORIENTED_EDGE('',*,*,#365,.F.);
#196=ORIENTED_EDGE('',*,*,#366,.T.);
#197=ORIENTED_EDGE('',*,*,#367,.F.);
#198=ORIENTED_EDGE('',*,*,#368,.T.);
#199=ORIENTED_EDGE('',*,*,#369,.F.);
#200=ORIENTED_EDGE('',*,*,#370,.F.);
#201=ORIENTED_EDGE('',*,*,#371,.F.);
#202=ORIENTED_EDGE('',*,*,#372,.T.);
#203=ORIENTED_EDGE('',*,*,#373,.T.);
#204=ORIENTED_EDGE('',*,*,#374,.T.);
#205=ORIENTED_EDGE('',*,*,#375,.T.);
#206=ORIENTED_EDGE('',*,*,#376,.T.);
#207=ORIENTED_EDGE('',*,*,#377,.T.);
#208=ORIENTED_EDGE('',*,*,#378,.T.);
#209=ORIENTED_EDGE('',*,*,#379,.T.);
#210=ORIENTED_EDGE('',*,*,#380,.T.);
#211=ORIENTED_EDGE('',*,*,#381,.T.);
#212=ORIENTED_EDGE('',*,*,#382,.T.);
#213=ORIENTED_EDGE('',*,*,#383,.T.);
#214=ORIENTED_EDGE('',*,*,#384,.T.);
#215=ORIENTED_EDGE('',*,*,#385,.T.);
#216=ORIENTED_EDGE('',*,*,#386,.T.);
#217=ORIENTED_EDGE('',*,*,#387,.T.);
#218=ORIENTED_EDGE('',*,*,#388,.T.);
#219=ORIENTED_EDGE('',*,*,#389,.T.);
#220=ORIENTED_EDGE('',*,*,#390,.T.);
#221=ORIENTED_EDGE('',*,*,#391,.T.);
#222=ORIENTED_EDGE('',*,*,#365,.T.);
#223=ORIENTED_EDGE('',*,*,#363,.T.);
#224=ORIENTED_EDGE('',*,*,#367,.T.);
#225=ORIENTED_EDGE('',*,*,#392,.F.);
#226=ORIENTED_EDGE('',*,*,#393,.F.);
#227=ORIENTED_EDGE('',*,*,#394,.F.);
#228=ORIENTED_EDGE('',*,*,#395,.F.);
#229=ORIENTED_EDGE('',*,*,#396,.F.);
#230=ORIENTED_EDGE('',*,*,#397,.F.);
#231=ORIENTED_EDGE('',*,*,#398,.F.);
#232=ORIENTED_EDGE('',*,*,#399,.F.);
#233=ORIENTED_EDGE('',*,*,#400,.F.);
#234=ORIENTED_EDGE('',*,*,#401,.F.);
#235=ORIENTED_EDGE('',*,*,#402,.F.);
#236=ORIENTED_EDGE('',*,*,#403,.F.);
#237=ORIENTED_EDGE('',*,*,#404,.F.);
#238=ORIENTED_EDGE('',*,*,#405,.F.);
#239=ORIENTED_EDGE('',*,*,#406,.F.);
#240=ORIENTED_EDGE('',*,*,#407,.F.);
#241=ORIENTED_EDGE('',*,*,#408,.F.);
#242=ORIENTED_EDGE('',*,*,#409,.F.);
#243=ORIENTED_EDGE('',*,*,#410,.F.);
#244=ORIENTED_EDGE('',*,*,#411,.F.);
#245=ORIENTED_EDGE('',*,*,#406,.T.);
#246=ORIENTED_EDGE('',*,*,#412,.F.);
#247=ORIENTED_EDGE('',*,*,#379,.F.);
#248=ORIENTED_EDGE('',*,*,#413,.T.);
#249=ORIENTED_EDGE('',*,*,#405,.T.);
#250=ORIENTED_EDGE('',*,*,#414,.F.);
#251=ORIENTED_EDGE('',*,*,#380,.F.);
#252=ORIENTED_EDGE('',*,*,#412,.T.);
#253=ORIENTED_EDGE('',*,*,#404,.T.);
#254=ORIENTED_EDGE('',*,*,#415,.F.);
#255=ORIENTED_EDGE('',*,*,#381,.F.);
#256=ORIENTED_EDGE('',*,*,#414,.T.);
#257=ORIENTED_EDGE('',*,*,#403,.T.);
#258=ORIENTED_EDGE('',*,*,#416,.F.);
#259=ORIENTED_EDGE('',*,*,#382,.F.);
#260=ORIENTED_EDGE('',*,*,#415,.T.);
#261=ORIENTED_EDGE('',*,*,#409,.T.);
#262=ORIENTED_EDGE('',*,*,#417,.F.);
#263=ORIENTED_EDGE('',*,*,#376,.F.);
#264=ORIENTED_EDGE('',*,*,#418,.T.);
#265=ORIENTED_EDGE('',*,*,#408,.T.);
#266=ORIENTED_EDGE('',*,*,#419,.F.);
#267=ORIENTED_EDGE('',*,*,#377,.F.);
#268=ORIENTED_EDGE('',*,*,#417,.T.);
#269=ORIENTED_EDGE('',*,*,#407,.T.);
#270=ORIENTED_EDGE('',*,*,#413,.F.);
#271=ORIENTED_EDGE('',*,*,#378,.F.);
#272=ORIENTED_EDGE('',*,*,#419,.T.);
#273=ORIENTED_EDGE('',*,*,#402,.T.);
#274=ORIENTED_EDGE('',*,*,#420,.F.);
#275=ORIENTED_EDGE('',*,*,#383,.F.);
#276=ORIENTED_EDGE('',*,*,#416,.T.);
#277=ORIENTED_EDGE('',*,*,#401,.T.);
#278=ORIENTED_EDGE('',*,*,#421,.F.);
#279=ORIENTED_EDGE('',*,*,#384,.F.);
#280=ORIENTED_EDGE('',*,*,#420,.T.);
#281=ORIENTED_EDGE('',*,*,#400,.T.);
#282=ORIENTED_EDGE('',*,*,#422,.F.);
#283=ORIENTED_EDGE('',*,*,#385,.F.);
#284=ORIENTED_EDGE('',*,*,#421,.T.);
#285=ORIENTED_EDGE('',*,*,#392,.T.);
#286=ORIENTED_EDGE('',*,*,#423,.F.);
#287=ORIENTED_EDGE('',*,*,#373,.F.);
#288=ORIENTED_EDGE('',*,*,#424,.T.);
#289=ORIENTED_EDGE('',*,*,#411,.T.);
#290=ORIENTED_EDGE('',*,*,#425,.F.);
#291=ORIENTED_EDGE('',*,*,#374,.F.);
#292=ORIENTED_EDGE('',*,*,#423,.T.);
#293=ORIENTED_EDGE('',*,*,#410,.T.);
#294=ORIENTED_EDGE('',*,*,#418,.F.);
#295=ORIENTED_EDGE('',*,*,#375,.F.);
#296=ORIENTED_EDGE('',*,*,#425,.T.);
#297=ORIENTED_EDGE('',*,*,#399,.T.);
#298=ORIENTED_EDGE('',*,*,#426,.F.);
#299=ORIENTED_EDGE('',*,*,#386,.F.);
#300=ORIENTED_EDGE('',*,*,#422,.T.);
#301=ORIENTED_EDGE('',*,*,#398,.T.);
#302=ORIENTED_EDGE('',*,*,#427,.F.);
#303=ORIENTED_EDGE('',*,*,#387,.F.);
#304=ORIENTED_EDGE('',*,*,#426,.T.);
#305=ORIENTED_EDGE('',*,*,#397,.T.);
#306=ORIENTED_EDGE('',*,*,#428,.F.);
#307=ORIENTED_EDGE('',*,*,#388,.F.);
#308=ORIENTED_EDGE('',*,*,#427,.T.);
#309=ORIENTED_EDGE('',*,*,#396,.T.);
#310=ORIENTED_EDGE('',*,*,#429,.F.);
#311=ORIENTED_EDGE('',*,*,#389,.F.);
#312=ORIENTED_EDGE('',*,*,#428,.T.);
#313=ORIENTED_EDGE('',*,*,#395,.T.);
#314=ORIENTED_EDGE('',*,*,#430,.F.);
#315=ORIENTED_EDGE('',*,*,#390,.F.);
#316=ORIENTED_EDGE('',*,*,#429,.T.);
#317=ORIENTED_EDGE('',*,*,#394,.T.);
#318=ORIENTED_EDGE('',*,*,#431,.F.);
#319=ORIENTED_EDGE('',*,*,#391,.F.);
#320=ORIENTED_EDGE('',*,*,#430,.T.);
#321=ORIENTED_EDGE('',*,*,#393,.T.);
#322=ORIENTED_EDGE('',*,*,#424,.F.);
#323=ORIENTED_EDGE('',*,*,#372,.F.);
#324=ORIENTED_EDGE('',*,*,#431,.T.);
#325=ORIENTED_EDGE('',*,*,#432,.F.);
#326=ORIENTED_EDGE('',*,*,#371,.T.);
#327=ORIENTED_EDGE('',*,*,#368,.F.);
#328=ORIENTED_EDGE('',*,*,#432,.T.);
#329=ORIENTED_EDGE('',*,*,#433,.F.);
#330=ORIENTED_EDGE('',*,*,#369,.T.);
#331=ORIENTED_EDGE('',*,*,#366,.F.);
#332=ORIENTED_EDGE('',*,*,#433,.T.);
#333=ORIENTED_EDGE('',*,*,#434,.F.);
#334=ORIENTED_EDGE('',*,*,#370,.T.);
#335=ORIENTED_EDGE('',*,*,#364,.F.);
#336=ORIENTED_EDGE('',*,*,#434,.T.);
#337=ORIENTED_EDGE('',*,*,#435,.T.);
#338=ORIENTED_EDGE('',*,*,#436,.F.);
#339=ORIENTED_EDGE('',*,*,#437,.T.);
#340=ORIENTED_EDGE('',*,*,#438,.F.);
#341=ORIENTED_EDGE('',*,*,#439,.F.);
#342=ORIENTED_EDGE('',*,*,#438,.T.);
#343=ORIENTED_EDGE('',*,*,#440,.F.);
#344=ORIENTED_EDGE('',*,*,#439,.T.);
#345=ORIENTED_EDGE('',*,*,#441,.F.);
#346=ORIENTED_EDGE('',*,*,#440,.T.);
#347=ORIENTED_EDGE('',*,*,#442,.F.);
#348=ORIENTED_EDGE('',*,*,#441,.T.);
#349=ORIENTED_EDGE('',*,*,#443,.F.);
#350=ORIENTED_EDGE('',*,*,#442,.T.);
#351=ORIENTED_EDGE('',*,*,#435,.F.);
#352=ORIENTED_EDGE('',*,*,#443,.T.);
#353=ORIENTED_EDGE('',*,*,#444,.F.);
#354=ORIENTED_EDGE('',*,*,#444,.T.);
#355=ORIENTED_EDGE('',*,*,#445,.F.);
#356=ORIENTED_EDGE('',*,*,#437,.F.);
#357=ORIENTED_EDGE('',*,*,#445,.T.);
#358=ORIENTED_EDGE('',*,*,#446,.F.);
#359=ORIENTED_EDGE('',*,*,#436,.T.);
#360=ORIENTED_EDGE('',*,*,#446,.T.);
#361=ORIENTED_EDGE('',*,*,#447,.F.);
#362=ORIENTED_EDGE('',*,*,#447,.T.);
#363=EDGE_CURVE('',#448,#448,#513,.T.);
#364=EDGE_CURVE('',#449,#449,#514,.T.);
#365=EDGE_CURVE('',#450,#450,#515,.T.);
#366=EDGE_CURVE('',#451,#451,#516,.T.);
#367=EDGE_CURVE('',#452,#452,#517,.T.);
#368=EDGE_CURVE('',#453,#453,#518,.T.);
#369=EDGE_CURVE('',#454,#454,#519,.T.);
#370=EDGE_CURVE('',#455,#455,#520,.T.);
#371=EDGE_CURVE('',#456,#456,#521,.T.);
#372=EDGE_CURVE('',#457,#458,#43,.T.);
#373=EDGE_CURVE('',#458,#459,#44,.T.);
#374=EDGE_CURVE('',#459,#460,#45,.T.);
#375=EDGE_CURVE('',#460,#461,#46,.T.);
#376=EDGE_CURVE('',#461,#462,#47,.T.);
#377=EDGE_CURVE('',#462,#463,#48,.T.);
#378=EDGE_CURVE('',#463,#464,#49,.T.);
#379=EDGE_CURVE('',#464,#465,#50,.T.);
#380=EDGE_CURVE('',#465,#466,#51,.T.);
#381=EDGE_CURVE('',#466,#467,#52,.T.);
#382=EDGE_CURVE('',#467,#468,#53,.T.);
#383=EDGE_CURVE('',#468,#469,#54,.T.);
#384=EDGE_CURVE('',#469,#470,#55,.T.);
#385=EDGE_CURVE('',#470,#471,#56,.T.);
#386=EDGE_CURVE('',#471,#472,#57,.T.);
#387=EDGE_CURVE('',#472,#473,#58,.T.);
#388=EDGE_CURVE('',#473,#474,#59,.T.);
#389=EDGE_CURVE('',#474,#475,#60,.T.);
#390=EDGE_CURVE('',#475,#476,#61,.T.);
#391=EDGE_CURVE('',#476,#457,#62,.T.);
#392=EDGE_CURVE('',#477,#478,#63,.T.);
#393=EDGE_CURVE('',#479,#477,#64,.T.);
#394=EDGE_CURVE('',#480,#479,#65,.T.);
#395=EDGE_CURVE('',#481,#480,#66,.T.);
#396=EDGE_CURVE('',#482,#481,#67,.T.);
#397=EDGE_CURVE('',#483,#482,#68,.T.);
#398=EDGE_CURVE('',#484,#483,#69,.T.);
#399=EDGE_CURVE('',#485,#484,#70,.T.);
#400=EDGE_CURVE('',#486,#485,#71,.T.);
#401=EDGE_CURVE('',#487,#486,#72,.T.);
#402=EDGE_CURVE('',#488,#487,#73,.T.);
#403=EDGE_CURVE('',#489,#488,#74,.T.);
#404=EDGE_CURVE('',#490,#489,#75,.T.);
#405=EDGE_CURVE('',#491,#490,#76,.T.);
#406=EDGE_CURVE('',#492,#491,#77,.T.);
#407=EDGE_CURVE('',#493,#492,#78,.T.);
#408=EDGE_CURVE('',#494,#493,#79,.T.);
#409=EDGE_CURVE('',#495,#494,#80,.T.);
#410=EDGE_CURVE('',#496,#495,#81,.T.);
#411=EDGE_CURVE('',#478,#496,#82,.T.);
#412=EDGE_CURVE('',#465,#491,#83,.T.);
#413=EDGE_CURVE('',#464,#492,#84,.T.);
#414=EDGE_CURVE('',#466,#490,#85,.T.);
#415=EDGE_CURVE('',#467,#489,#86,.T.);
#416=EDGE_CURVE('',#468,#488,#87,.T.);
#417=EDGE_CURVE('',#462,#494,#88,.T.);
#418=EDGE_CURVE('',#461,#495,#89,.T.);
#419=EDGE_CURVE('',#463,#493,#90,.T.);
#420=EDGE_CURVE('',#469,#487,#91,.T.);
#421=EDGE_CURVE('',#470,#486,#92,.T.);
#422=EDGE_CURVE('',#471,#485,#93,.T.);
#423=EDGE_CURVE('',#459,#478,#94,.T.);
#424=EDGE_CURVE('',#458,#477,#95,.T.);
#425=EDGE_CURVE('',#460,#496,#96,.T.);
#426=EDGE_CURVE('',#472,#484,#97,.T.);
#427=EDGE_CURVE('',#473,#483,#98,.T.);
#428=EDGE_CURVE('',#474,#482,#99,.T.);
#429=EDGE_CURVE('',#475,#481,#100,.T.);
#430=EDGE_CURVE('',#476,#480,#101,.T.);
#431=EDGE_CURVE('',#457,#479,#102,.T.);
#432=EDGE_CURVE('',#497,#497,#522,.T.);
#433=EDGE_CURVE('',#498,#498,#523,.T.);
#434=EDGE_CURVE('',#499,#499,#524,.T.);
#435=EDGE_CURVE('',#500,#500,#525,.T.);
#436=EDGE_CURVE('',#501,#501,#526,.F.);
#437=EDGE_CURVE('',#502,#502,#527,.T.);
#438=EDGE_CURVE('',#503,#503,#528,.T.);
#439=EDGE_CURVE('',#504,#504,#529,.T.);
#440=EDGE_CURVE('',#505,#505,#530,.T.);
#441=EDGE_CURVE('',#506,#506,#531,.T.);
#442=EDGE_CURVE('',#507,#507,#532,.T.);
#443=EDGE_CURVE('',#508,#508,#533,.T.);
#444=EDGE_CURVE('',#509,#509,#534,.T.);
#445=EDGE_CURVE('',#510,#510,#535,.T.);
#446=EDGE_CURVE('',#511,#511,#536,.T.);
#447=EDGE_CURVE('',#512,#512,#537,.T.);
#448=VERTEX_POINT('',#1051);
#449=VERTEX_POINT('',#1053);
#450=VERTEX_POINT('',#1056);
#451=VERTEX_POINT('',#1058);
#452=VERTEX_POINT('',#1061);
#453=VERTEX_POINT('',#1063);
#454=VERTEX_POINT('',#1066);
#455=VERTEX_POINT('',#1068);
#456=VERTEX_POINT('',#1070);
#457=VERTEX_POINT('',#1072);
#458=VERTEX_POINT('',#1073);
#459=VERTEX_POINT('',#1075);
#460=VERTEX_POINT('',#1077);
#461=VERTEX_POINT('',#1079);
#462=VERTEX_POINT('',#1081);
#463=VERTEX_POINT('',#1083);
#464=VERTEX_POINT('',#1085);
#465=VERTEX_POINT('',#1087);
#466=VERTEX_POINT('',#1089);
#467=VERTEX_POINT('',#1091);
#468=VERTEX_POINT('',#1093);
#469=VERTEX_POINT('',#1095);
#470=VERTEX_POINT('',#1097);
#471=VERTEX_POINT('',#1099);
#472=VERTEX_POINT('',#1101);
#473=VERTEX_POINT('',#1103);
#474=VERTEX_POINT('',#1105);
#475=VERTEX_POINT('',#1107);
#476=VERTEX_POINT('',#1109);
#477=VERTEX_POINT('',#1113);
#478=VERTEX_POINT('',#1114);
#479=VERTEX_POINT('',#1116);
#480=VERTEX_POINT('',#1118);
#481=VERTEX_POINT('',#1120);
#482=VERTEX_POINT('',#1122);
#483=VERTEX_POINT('',#1124);
#484=VERTEX_POINT('',#1126);
#485=VERTEX_POINT('',#1128);
#486=VERTEX_POINT('',#1130);
#487=VERTEX_POINT('',#1132);
#488=VERTEX_POINT('',#1134);
#489=VERTEX_POINT('',#1136);
#490=VERTEX_POINT('',#1138);
#491=VERTEX_POINT('',#1140);
#492=VERTEX_POINT('',#1142);
#493=VERTEX_POINT('',#1144);
#494=VERTEX_POINT('',#1146);
#495=VERTEX_POINT('',#1148);
#496=VERTEX_POINT('',#1150);
#497=VERTEX_POINT('',#1194);
#498=VERTEX_POINT('',#1198);
#499=VERTEX_POINT('',#1202);
#500=VERTEX_POINT('',#1207);
#501=VERTEX_POINT('',#1209);
#502=VERTEX_POINT('',#1212);
#503=VERTEX_POINT('',#1214);
#504=VERTEX_POINT('',#1217);
#505=VERTEX_POINT('',#1220);
#506=VERTEX_POINT('',#1223);
#507=VERTEX_POINT('',#1226);
#508=VERTEX_POINT('',#1229);
#509=VERTEX_POINT('',#1233);
#510=VERTEX_POINT('',#1236);
#511=VERTEX_POINT('',#1240);
#512=VERTEX_POINT('',#1243);
#513=CIRCLE('',#765,0.026);
#514=CIRCLE('',#766,0.026);
#515=CIRCLE('',#768,0.026);
#516=CIRCLE('',#769,0.026);
#517=CIRCLE('',#771,0.026);
#518=CIRCLE('',#772,0.026);
#519=CIRCLE('',#774,0.035);
#520=CIRCLE('',#775,0.035);
#521=CIRCLE('',#776,0.035);
#522=CIRCLE('',#799,0.035);
#523=CIRCLE('',#802,0.035);
#524=CIRCLE('',#805,0.035);
#525=CIRCLE('',#809,0.026);
#526=CIRCLE('',#810,0.009);
#527=CIRCLE('',#812,0.0125);
#528=CIRCLE('',#813,0.035);
#529=CIRCLE('',#815,0.035);
#530=CIRCLE('',#817,0.026);
#531=CIRCLE('',#819,0.026);
#532=CIRCLE('',#821,0.0305);
#533=CIRCLE('',#823,0.026);
#534=CIRCLE('',#826,0.002);
#535=CIRCLE('',#828,0.0125);
#536=CIRCLE('',#831,0.009);
#537=CIRCLE('',#833,0.002);
#538=EDGE_LOOP('',(#193));
#539=EDGE_LOOP('',(#194));
#540=EDGE_LOOP('',(#195));
#541=EDGE_LOOP('',(#196));
#542=EDGE_LOOP('',(#197));
#543=EDGE_LOOP('',(#198));
#544=EDGE_LOOP('',(#199));
#545=EDGE_LOOP('',(#200));
#546=EDGE_LOOP('',(#201));
#547=EDGE_LOOP('',(#202,#203,#204,#205,#206,#207,#208,#209,#210,#211,#212,
#213,#214,#215,#216,#217,#218,#219,#220,#221));
#548=EDGE_LOOP('',(#222));
#549=EDGE_LOOP('',(#223));
#550=EDGE_LOOP('',(#224));
#551=EDGE_LOOP('',(#225,#226,#227,#228,#229,#230,#231,#232,#233,#234,#235,
#236,#237,#238,#239,#240,#241,#242,#243,#244));
#552=EDGE_LOOP('',(#245,#246,#247,#248));
#553=EDGE_LOOP('',(#249,#250,#251,#252));
#554=EDGE_LOOP('',(#253,#254,#255,#256));
#555=EDGE_LOOP('',(#257,#258,#259,#260));
#556=EDGE_LOOP('',(#261,#262,#263,#264));
#557=EDGE_LOOP('',(#265,#266,#267,#268));
#558=EDGE_LOOP('',(#269,#270,#271,#272));
#559=EDGE_LOOP('',(#273,#274,#275,#276));
#560=EDGE_LOOP('',(#277,#278,#279,#280));
#561=EDGE_LOOP('',(#281,#282,#283,#284));
#562=EDGE_LOOP('',(#285,#286,#287,#288));
#563=EDGE_LOOP('',(#289,#290,#291,#292));
#564=EDGE_LOOP('',(#293,#294,#295,#296));
#565=EDGE_LOOP('',(#297,#298,#299,#300));
#566=EDGE_LOOP('',(#301,#302,#303,#304));
#567=EDGE_LOOP('',(#305,#306,#307,#308));
#568=EDGE_LOOP('',(#309,#310,#311,#312));
#569=EDGE_LOOP('',(#313,#314,#315,#316));
#570=EDGE_LOOP('',(#317,#318,#319,#320));
#571=EDGE_LOOP('',(#321,#322,#323,#324));
#572=EDGE_LOOP('',(#325));
#573=EDGE_LOOP('',(#326));
#574=EDGE_LOOP('',(#327));
#575=EDGE_LOOP('',(#328));
#576=EDGE_LOOP('',(#329));
#577=EDGE_LOOP('',(#330));
#578=EDGE_LOOP('',(#331));
#579=EDGE_LOOP('',(#332));
#580=EDGE_LOOP('',(#333));
#581=EDGE_LOOP('',(#334));
#582=EDGE_LOOP('',(#335));
#583=EDGE_LOOP('',(#336));
#584=EDGE_LOOP('',(#337));
#585=EDGE_LOOP('',(#338));
#586=EDGE_LOOP('',(#339));
#587=EDGE_LOOP('',(#340));
#588=EDGE_LOOP('',(#341));
#589=EDGE_LOOP('',(#342));
#590=EDGE_LOOP('',(#343));
#591=EDGE_LOOP('',(#344));
#592=EDGE_LOOP('',(#345));
#593=EDGE_LOOP('',(#346));
#594=EDGE_LOOP('',(#347));
#595=EDGE_LOOP('',(#348));
#596=EDGE_LOOP('',(#349));
#597=EDGE_LOOP('',(#350));
#598=EDGE_LOOP('',(#351));
#599=EDGE_LOOP('',(#352));
#600=EDGE_LOOP('',(#353));
#601=EDGE_LOOP('',(#354));
#602=EDGE_LOOP('',(#355));
#603=EDGE_LOOP('',(#356));
#604=EDGE_LOOP('',(#357));
#605=EDGE_LOOP('',(#358));
#606=EDGE_LOOP('',(#359));
#607=EDGE_LOOP('',(#360));
#608=EDGE_LOOP('',(#361));
#609=EDGE_LOOP('',(#362));
#610=FACE_BOUND('',#538,.T.);
#611=FACE_BOUND('',#539,.T.);
#612=FACE_BOUND('',#540,.T.);
#613=FACE_BOUND('',#541,.T.);
#614=FACE_BOUND('',#542,.T.);
#615=FACE_BOUND('',#543,.T.);
#616=FACE_BOUND('',#544,.T.);
#617=FACE_BOUND('',#545,.T.);
#618=FACE_BOUND('',#546,.T.);
#619=FACE_BOUND('',#547,.T.);
#620=FACE_BOUND('',#548,.T.);
#621=FACE_BOUND('',#549,.T.);
#622=FACE_BOUND('',#550,.T.);
#623=FACE_BOUND('',#551,.T.);
#624=FACE_BOUND('',#552,.T.);
#625=FACE_BOUND('',#553,.T.);
#626=FACE_BOUND('',#554,.T.);
#627=FACE_BOUND('',#555,.T.);
#628=FACE_BOUND('',#556,.T.);
#629=FACE_BOUND('',#557,.T.);
#630=FACE_BOUND('',#558,.T.);
#631=FACE_BOUND('',#559,.T.);
#632=FACE_BOUND('',#560,.T.);
#633=FACE_BOUND('',#561,.T.);
#634=FACE_BOUND('',#562,.T.);
#635=FACE_BOUND('',#563,.T.);
#636=FACE_BOUND('',#564,.T.);
#637=FACE_BOUND('',#565,.T.);
#638=FACE_BOUND('',#566,.T.);
#639=FACE_BOUND('',#567,.T.);
#640=FACE_BOUND('',#568,.T.);
#641=FACE_BOUND('',#569,.T.);
#642=FACE_BOUND('',#570,.T.);
#643=FACE_BOUND('',#571,.T.);
#644=FACE_BOUND('',#572,.T.);
#645=FACE_BOUND('',#573,.T.);
#646=FACE_BOUND('',#574,.T.);
#647=FACE_BOUND('',#575,.T.);
#648=FACE_BOUND('',#576,.T.);
#649=FACE_BOUND('',#577,.T.);
#650=FACE_BOUND('',#578,.T.);
#651=FACE_BOUND('',#579,.T.);
#652=FACE_BOUND('',#580,.T.);
#653=FACE_BOUND('',#581,.T.);
#654=FACE_BOUND('',#582,.T.);
#655=FACE_BOUND('',#583,.T.);
#656=FACE_BOUND('',#584,.T.);
#657=FACE_BOUND('',#585,.T.);
#658=FACE_BOUND('',#586,.T.);
#659=FACE_BOUND('',#587,.T.);
#660=FACE_BOUND('',#588,.T.);
#661=FACE_BOUND('',#589,.T.);
#662=FACE_BOUND('',#590,.T.);
#663=FACE_BOUND('',#591,.T.);
#664=FACE_BOUND('',#592,.T.);
#665=FACE_BOUND('',#593,.T.);
#666=FACE_BOUND('',#594,.T.);
#667=FACE_BOUND('',#595,.T.);
#668=FACE_BOUND('',#596,.T.);
#669=FACE_BOUND('',#597,.T.);
#670=FACE_BOUND('',#598,.T.);
#671=FACE_BOUND('',#599,.T.);
#672=FACE_BOUND('',#600,.T.);
#673=FACE_BOUND('',#601,.T.);
#674=FACE_BOUND('',#602,.T.);
#675=FACE_BOUND('',#603,.T.);
#676=FACE_BOUND('',#604,.T.);
#677=FACE_BOUND('',#605,.T.);
#678=FACE_BOUND('',#606,.T.);
#679=FACE_BOUND('',#607,.T.);
#680=FACE_BOUND('',#608,.T.);
#681=FACE_BOUND('',#609,.T.);
#682=CYLINDRICAL_SURFACE('',#764,0.026);
#683=CYLINDRICAL_SURFACE('',#767,0.026);
#684=CYLINDRICAL_SURFACE('',#770,0.026);
#685=CYLINDRICAL_SURFACE('',#798,0.035);
#686=CYLINDRICAL_SURFACE('',#801,0.035);
#687=CYLINDRICAL_SURFACE('',#804,0.035);
#688=CYLINDRICAL_SURFACE('',#814,0.035);
#689=CYLINDRICAL_SURFACE('',#818,0.026);
#690=CYLINDRICAL_SURFACE('',#824,0.026);
#691=CYLINDRICAL_SURFACE('',#829,0.0125);
#692=CYLINDRICAL_SURFACE('',#830,0.009);
#693=ADVANCED_FACE('',(#610,#611),#682,.F.);
#694=ADVANCED_FACE('',(#612,#613),#683,.F.);
#695=ADVANCED_FACE('',(#614,#615),#684,.F.);
#696=ADVANCED_FACE('',(#616,#617,#618,#619),#163,.T.);
#697=ADVANCED_FACE('',(#620,#621,#622,#623),#164,.F.);
#698=ADVANCED_FACE('',(#624),#165,.F.);
#699=ADVANCED_FACE('',(#625),#166,.F.);
#700=ADVANCED_FACE('',(#626),#167,.F.);
#701=ADVANCED_FACE('',(#627),#168,.F.);
#702=ADVANCED_FACE('',(#628),#169,.F.);
#703=ADVANCED_FACE('',(#629),#170,.F.);
#704=ADVANCED_FACE('',(#630),#171,.F.);
#705=ADVANCED_FACE('',(#631),#172,.F.);
#706=ADVANCED_FACE('',(#632),#173,.F.);
#707=ADVANCED_FACE('',(#633),#174,.F.);
#708=ADVANCED_FACE('',(#634),#175,.F.);
#709=ADVANCED_FACE('',(#635),#176,.F.);
#710=ADVANCED_FACE('',(#636),#177,.F.);
#711=ADVANCED_FACE('',(#637),#178,.F.);
#712=ADVANCED_FACE('',(#638),#179,.F.);
#713=ADVANCED_FACE('',(#639),#180,.F.);
#714=ADVANCED_FACE('',(#640),#181,.F.);
#715=ADVANCED_FACE('',(#641),#182,.F.);
#716=ADVANCED_FACE('',(#642),#183,.F.);
#717=ADVANCED_FACE('',(#643),#184,.F.);
#718=ADVANCED_FACE('',(#644,#645),#685,.F.);
#719=ADVANCED_FACE('',(#646,#647),#185,.T.);
#720=ADVANCED_FACE('',(#648,#649),#686,.F.);
#721=ADVANCED_FACE('',(#650,#651),#186,.T.);
#722=ADVANCED_FACE('',(#652,#653),#687,.F.);
#723=ADVANCED_FACE('',(#654,#655),#187,.T.);
#724=ADVANCED_FACE('',(#656,#657),#20,.T.);
#725=ADVANCED_FACE('',(#658,#659),#188,.F.);
#726=ADVANCED_FACE('',(#660,#661),#688,.T.);
#727=ADVANCED_FACE('',(#662,#663),#189,.F.);
#728=ADVANCED_FACE('',(#664,#665),#689,.T.);
#729=ADVANCED_FACE('',(#666,#667),#190,.F.);
#730=ADVANCED_FACE('',(#668,#669),#21,.T.);
#731=ADVANCED_FACE('',(#670,#671),#690,.T.);
#732=ADVANCED_FACE('',(#672),#191,.F.);
#733=ADVANCED_FACE('',(#673,#674),#18,.T.);
#734=ADVANCED_FACE('',(#675,#676),#691,.T.);
#735=ADVANCED_FACE('',(#677,#678),#692,.T.);
#736=ADVANCED_FACE('',(#679,#680),#19,.T.);
#737=ADVANCED_FACE('',(#681),#192,.F.);
#738=CLOSED_SHELL('',(#693,#694,#695,#696,#697,#698,#699,#700,#701,#702,
#703,#704,#705,#706,#707,#708,#709,#710,#711,#712,#713,#714,#715,#716,#717,
#718,#719,#720,#721,#722,#723));
#739=CLOSED_SHELL('',(#724,#725,#726,#727,#728,#729,#730,#731,#732,#733,
#734,#735,#736,#737));
#740=STYLED_ITEM('',(#742),#755);
#741=STYLED_ITEM('',(#743),#756);
#742=PRESENTATION_STYLE_ASSIGNMENT((#744));
#743=PRESENTATION_STYLE_ASSIGNMENT((#745));
#744=SURFACE_STYLE_USAGE(.BOTH.,#746);
#745=SURFACE_STYLE_USAGE(.BOTH.,#747);
#746=SURFACE_SIDE_STYLE('',(#748));
#747=SURFACE_SIDE_STYLE('',(#749));
#748=SURFACE_STYLE_FILL_AREA(#750);
#749=SURFACE_STYLE_FILL_AREA(#751);
#750=FILL_AREA_STYLE('',(#752));
#751=FILL_AREA_STYLE('',(#753));
#752=FILL_AREA_STYLE_COLOUR('',#754);
#753=FILL_AREA_STYLE_COLOUR('',#22);
#754=COLOUR_RGB('',0.5,0.5,0.5);
#755=MANIFOLD_SOLID_BREP('TS-103-G-A_socket',#738);
#756=MANIFOLD_SOLID_BREP('-101-G-A_pins',#739);
#757=SHAPE_DEFINITION_REPRESENTATION(#1261,#760);
#758=SHAPE_DEFINITION_REPRESENTATION(#1262,#761);
#759=SHAPE_DEFINITION_REPRESENTATION(#1264,#762);
#760=SHAPE_REPRESENTATION('TS-103-T-A',(#763,#807,#835,#836,#837),#1249);
#761=SHAPE_REPRESENTATION('TS-103-G-A_socket',(#763),#1250);
#762=SHAPE_REPRESENTATION('-101-G-A_pins',(#763),#1251);
#763=AXIS2_PLACEMENT_3D('',#1048,#838,#839);
#764=AXIS2_PLACEMENT_3D('',#1049,#840,#841);
#765=AXIS2_PLACEMENT_3D('',#1050,#842,#843);
#766=AXIS2_PLACEMENT_3D('',#1052,#844,#845);
#767=AXIS2_PLACEMENT_3D('',#1054,#846,#847);
#768=AXIS2_PLACEMENT_3D('',#1055,#848,#849);
#769=AXIS2_PLACEMENT_3D('',#1057,#850,#851);
#770=AXIS2_PLACEMENT_3D('',#1059,#852,#853);
#771=AXIS2_PLACEMENT_3D('',#1060,#854,#855);
#772=AXIS2_PLACEMENT_3D('',#1062,#856,#857);
#773=AXIS2_PLACEMENT_3D('',#1064,#858,#859);
#774=AXIS2_PLACEMENT_3D('',#1065,#860,#861);
#775=AXIS2_PLACEMENT_3D('',#1067,#862,#863);
#776=AXIS2_PLACEMENT_3D('',#1069,#864,#865);
#777=AXIS2_PLACEMENT_3D('',#1111,#886,#887);
#778=AXIS2_PLACEMENT_3D('',#1152,#908,#909);
#779=AXIS2_PLACEMENT_3D('',#1155,#912,#913);
#780=AXIS2_PLACEMENT_3D('',#1157,#915,#916);
#781=AXIS2_PLACEMENT_3D('',#1159,#918,#919);
#782=AXIS2_PLACEMENT_3D('',#1161,#921,#922);
#783=AXIS2_PLACEMENT_3D('',#1164,#925,#926);
#784=AXIS2_PLACEMENT_3D('',#1166,#928,#929);
#785=AXIS2_PLACEMENT_3D('',#1167,#930,#931);
#786=AXIS2_PLACEMENT_3D('',#1169,#933,#934);
#787=AXIS2_PLACEMENT_3D('',#1171,#936,#937);
#788=AXIS2_PLACEMENT_3D('',#1173,#939,#940);
#789=AXIS2_PLACEMENT_3D('',#1176,#943,#944);
#790=AXIS2_PLACEMENT_3D('',#1178,#946,#947);
#791=AXIS2_PLACEMENT_3D('',#1179,#948,#949);
#792=AXIS2_PLACEMENT_3D('',#1181,#951,#952);
#793=AXIS2_PLACEMENT_3D('',#1183,#954,#955);
#794=AXIS2_PLACEMENT_3D('',#1185,#957,#958);
#795=AXIS2_PLACEMENT_3D('',#1187,#960,#961);
#796=AXIS2_PLACEMENT_3D('',#1189,#963,#964);
#797=AXIS2_PLACEMENT_3D('',#1191,#966,#967);
#798=AXIS2_PLACEMENT_3D('',#1192,#968,#969);
#799=AXIS2_PLACEMENT_3D('',#1193,#970,#971);
#800=AXIS2_PLACEMENT_3D('',#1195,#972,#973);
#801=AXIS2_PLACEMENT_3D('',#1196,#974,#975);
#802=AXIS2_PLACEMENT_3D('',#1197,#976,#977);
#803=AXIS2_PLACEMENT_3D('',#1199,#978,#979);
#804=AXIS2_PLACEMENT_3D('',#1200,#980,#981);
#805=AXIS2_PLACEMENT_3D('',#1201,#982,#983);
#806=AXIS2_PLACEMENT_3D('',#1203,#984,#985);
#807=AXIS2_PLACEMENT_3D('',#1204,#986,#987);
#808=AXIS2_PLACEMENT_3D('',#1205,#988,#989);
#809=AXIS2_PLACEMENT_3D('',#1206,#990,#991);
#810=AXIS2_PLACEMENT_3D('',#1208,#992,#993);
#811=AXIS2_PLACEMENT_3D('',#1210,#994,#995);
#812=AXIS2_PLACEMENT_3D('',#1211,#996,#997);
#813=AXIS2_PLACEMENT_3D('',#1213,#998,#999);
#814=AXIS2_PLACEMENT_3D('',#1215,#1000,#1001);
#815=AXIS2_PLACEMENT_3D('',#1216,#1002,#1003);
#816=AXIS2_PLACEMENT_3D('',#1218,#1004,#1005);
#817=AXIS2_PLACEMENT_3D('',#1219,#1006,#1007);
#818=AXIS2_PLACEMENT_3D('',#1221,#1008,#1009);
#819=AXIS2_PLACEMENT_3D('',#1222,#1010,#1011);
#820=AXIS2_PLACEMENT_3D('',#1224,#1012,#1013);
#821=AXIS2_PLACEMENT_3D('',#1225,#1014,#1015);
#822=AXIS2_PLACEMENT_3D('',#1227,#1016,#1017);
#823=AXIS2_PLACEMENT_3D('',#1228,#1018,#1019);
#824=AXIS2_PLACEMENT_3D('',#1230,#1020,#1021);
#825=AXIS2_PLACEMENT_3D('',#1231,#1022,#1023);
#826=AXIS2_PLACEMENT_3D('',#1232,#1024,#1025);
#827=AXIS2_PLACEMENT_3D('',#1234,#1026,#1027);
#828=AXIS2_PLACEMENT_3D('',#1235,#1028,#1029);
#829=AXIS2_PLACEMENT_3D('',#1237,#1030,#1031);
#830=AXIS2_PLACEMENT_3D('',#1238,#1032,#1033);
#831=AXIS2_PLACEMENT_3D('',#1239,#1034,#1035);
#832=AXIS2_PLACEMENT_3D('',#1241,#1036,#1037);
#833=AXIS2_PLACEMENT_3D('',#1242,#1038,#1039);
#834=AXIS2_PLACEMENT_3D('',#1244,#1040,#1041);
#835=AXIS2_PLACEMENT_3D('',#1245,#1042,#1043);
#836=AXIS2_PLACEMENT_3D('',#1246,#1044,#1045);
#837=AXIS2_PLACEMENT_3D('',#1247,#1046,#1047);
#838=DIRECTION('',(0.,0.,1.));
#839=DIRECTION('',(1.,0.,0.));
#840=DIRECTION('',(0.,-1.,0.));
#841=DIRECTION('',(0.,0.,-1.));
#842=DIRECTION('',(0.,1.,0.));
#843=DIRECTION('',(1.,0.,0.));
#844=DIRECTION('',(0.,1.,0.));
#845=DIRECTION('',(0.,0.,1.));
#846=DIRECTION('',(0.,-1.,0.));
#847=DIRECTION('',(0.,0.,-1.));
#848=DIRECTION('',(0.,1.,0.));
#849=DIRECTION('',(1.,0.,0.));
#850=DIRECTION('',(0.,1.,0.));
#851=DIRECTION('',(0.,0.,1.));
#852=DIRECTION('',(0.,-1.,0.));
#853=DIRECTION('',(0.,0.,-1.));
#854=DIRECTION('',(0.,1.,0.));
#855=DIRECTION('',(1.,0.,0.));
#856=DIRECTION('',(0.,1.,0.));
#857=DIRECTION('',(0.,0.,1.));
#858=DIRECTION('',(0.,1.,0.));
#859=DIRECTION('',(0.,0.,1.));
#860=DIRECTION('',(0.,1.,0.));
#861=DIRECTION('',(1.,0.,0.));
#862=DIRECTION('',(0.,1.,0.));
#863=DIRECTION('',(1.,0.,0.));
#864=DIRECTION('',(0.,1.,0.));
#865=DIRECTION('',(1.,0.,0.));
#866=DIRECTION('',(-0.258819045102521,0.,0.965925826289068));
#867=DIRECTION('',(-0.258819045102521,0.,-0.965925826289068));
#868=DIRECTION('',(-1.,0.,0.));
#869=DIRECTION('',(-0.258819045102521,0.,0.965925826289068));
#870=DIRECTION('',(-0.258819045102521,0.,-0.965925826289068));
#871=DIRECTION('',(-1.,0.,0.));
#872=DIRECTION('',(-0.258819045102521,0.,0.965925826289068));
#873=DIRECTION('',(0.,0.,1.));
#874=DIRECTION('',(0.25881904510252,0.,0.965925826289068));
#875=DIRECTION('',(1.,0.,0.));
#876=DIRECTION('',(0.258819045102521,0.,-0.965925826289068));
#877=DIRECTION('',(0.25881904510252,0.,0.965925826289068));
#878=DIRECTION('',(1.,0.,0.));
#879=DIRECTION('',(0.258819045102521,0.,-0.965925826289068));
#880=DIRECTION('',(0.25881904510252,0.,0.965925826289068));
#881=DIRECTION('',(1.,0.,0.));
#882=DIRECTION('',(0.258819045102521,0.,-0.965925826289068));
#883=DIRECTION('',(0.,0.,-1.));
#884=DIRECTION('',(-0.258819045102521,0.,-0.965925826289068));
#885=DIRECTION('',(-1.,0.,0.));
#886=DIRECTION('',(0.,1.,0.));
#887=DIRECTION('',(0.,0.,1.));
#888=DIRECTION('',(-0.258819045102521,0.,-0.965925826289068));
#889=DIRECTION('',(-0.258819045102521,0.,0.965925826289068));
#890=DIRECTION('',(-1.,0.,0.));
#891=DIRECTION('',(-0.258819045102521,0.,-0.965925826289068));
#892=DIRECTION('',(0.,0.,-1.));
#893=DIRECTION('',(0.258819045102521,0.,-0.965925826289068));
#894=DIRECTION('',(1.,0.,0.));
#895=DIRECTION('',(0.25881904510252,0.,0.965925826289068));
#896=DIRECTION('',(0.258819045102521,0.,-0.965925826289068));
#897=DIRECTION('',(1.,0.,0.));
#898=DIRECTION('',(0.25881904510252,0.,0.965925826289068));
#899=DIRECTION('',(0.258819045102521,0.,-0.965925826289068));
#900=DIRECTION('',(1.,0.,0.));
#901=DIRECTION('',(0.25881904510252,0.,0.965925826289068));
#902=DIRECTION('',(0.,0.,1.));
#903=DIRECTION('',(-0.258819045102521,0.,0.965925826289068));
#904=DIRECTION('',(-1.,0.,0.));
#905=DIRECTION('',(-0.258819045102521,0.,-0.965925826289068));
#906=DIRECTION('',(-0.258819045102521,0.,0.965925826289068));
#907=DIRECTION('',(-1.,0.,0.));
#908=DIRECTION('',(1.,0.,0.));
#909=DIRECTION('',(0.,0.,-1.));
#910=DIRECTION('',(0.,-1.,0.));
#911=DIRECTION('',(0.,-1.,0.));
#912=DIRECTION('',(0.965925826289068,0.,-0.25881904510252));
#913=DIRECTION('',(-0.25881904510252,0.,-0.965925826289068));
#914=DIRECTION('',(0.,-1.,0.));
#915=DIRECTION('',(0.,0.,-1.));
#916=DIRECTION('',(-1.,0.,0.));
#917=DIRECTION('',(0.,-1.,0.));
#918=DIRECTION('',(-0.965925826289068,0.,-0.258819045102521));
#919=DIRECTION('',(-0.258819045102521,0.,0.965925826289068));
#920=DIRECTION('',(0.,-1.,0.));
#921=DIRECTION('',(-0.965925826289068,0.,0.258819045102521));
#922=DIRECTION('',(0.258819045102521,0.,0.965925826289068));
#923=DIRECTION('',(0.,-1.,0.));
#924=DIRECTION('',(0.,-1.,0.));
#925=DIRECTION('',(0.,0.,1.));
#926=DIRECTION('',(1.,0.,0.));
#927=DIRECTION('',(0.,-1.,0.));
#928=DIRECTION('',(0.965925826289068,0.,0.258819045102521));
#929=DIRECTION('',(0.258819045102521,0.,-0.965925826289068));
#930=DIRECTION('',(0.965925826289068,0.,-0.25881904510252));
#931=DIRECTION('',(-0.25881904510252,0.,-0.965925826289068));
#932=DIRECTION('',(0.,-1.,0.));
#933=DIRECTION('',(0.,0.,-1.));
#934=DIRECTION('',(-1.,0.,0.));
#935=DIRECTION('',(0.,-1.,0.));
#936=DIRECTION('',(-0.965925826289068,0.,-0.258819045102521));
#937=DIRECTION('',(-0.258819045102521,0.,0.965925826289068));
#938=DIRECTION('',(0.,-1.,0.));
#939=DIRECTION('',(-0.965925826289068,0.,0.258819045102521));
#940=DIRECTION('',(0.258819045102521,0.,0.965925826289068));
#941=DIRECTION('',(0.,-1.,0.));
#942=DIRECTION('',(0.,-1.,0.));
#943=DIRECTION('',(0.,0.,1.));
#944=DIRECTION('',(1.,0.,0.));
#945=DIRECTION('',(0.,-1.,0.));
#946=DIRECTION('',(0.965925826289068,0.,0.258819045102521));
#947=DIRECTION('',(0.258819045102521,0.,-0.965925826289068));
#948=DIRECTION('',(0.965925826289068,0.,-0.25881904510252));
#949=DIRECTION('',(-0.25881904510252,0.,-0.965925826289068));
#950=DIRECTION('',(0.,-1.,0.));
#951=DIRECTION('',(0.,0.,-1.));
#952=DIRECTION('',(-1.,0.,0.));
#953=DIRECTION('',(0.,-1.,0.));
#954=DIRECTION('',(-0.965925826289068,0.,-0.258819045102521));
#955=DIRECTION('',(-0.258819045102521,0.,0.965925826289068));
#956=DIRECTION('',(0.,-1.,0.));
#957=DIRECTION('',(-1.,0.,0.));
#958=DIRECTION('',(0.,0.,1.));
#959=DIRECTION('',(0.,-1.,0.));
#960=DIRECTION('',(-0.965925826289068,0.,0.258819045102521));
#961=DIRECTION('',(0.258819045102521,0.,0.965925826289068));
#962=DIRECTION('',(0.,-1.,0.));
#963=DIRECTION('',(0.,0.,1.));
#964=DIRECTION('',(1.,0.,0.));
#965=DIRECTION('',(0.,-1.,0.));
#966=DIRECTION('',(0.965925826289068,0.,0.258819045102521));
#967=DIRECTION('',(0.258819045102521,0.,-0.965925826289068));
#968=DIRECTION('',(0.,1.,0.));
#969=DIRECTION('',(0.,0.,1.));
#970=DIRECTION('',(0.,1.,0.));
#971=DIRECTION('',(1.,0.,0.));
#972=DIRECTION('',(0.,1.,0.));
#973=DIRECTION('',(0.,0.,1.));
#974=DIRECTION('',(0.,1.,0.));
#975=DIRECTION('',(0.,0.,1.));
#976=DIRECTION('',(0.,1.,0.));
#977=DIRECTION('',(1.,0.,0.));
#978=DIRECTION('',(0.,1.,0.));
#979=DIRECTION('',(0.,0.,1.));
#980=DIRECTION('',(0.,1.,0.));
#981=DIRECTION('',(0.,0.,1.));
#982=DIRECTION('',(0.,1.,0.));
#983=DIRECTION('',(1.,0.,0.));
#984=DIRECTION('',(0.,1.,0.));
#985=DIRECTION('',(0.,0.,1.));
#986=DIRECTION('',(0.,0.,1.));
#987=DIRECTION('',(1.,0.,0.));
#988=DIRECTION('',(2.18249948587249E-17,1.,0.));
#989=DIRECTION('',(-1.,2.18249948587249E-17,0.));
#990=DIRECTION('',(-2.18249948587249E-17,-1.,0.));
#991=DIRECTION('',(1.,-2.18249948587249E-17,0.));
#992=DIRECTION('',(2.18249948587249E-17,1.,0.));
#993=DIRECTION('',(-1.,2.18249948587249E-17,0.));
#994=DIRECTION('',(-2.18249948587249E-17,-1.,0.));
#995=DIRECTION('',(1.,-2.18249948587249E-17,0.));
#996=DIRECTION('',(0.,-1.,0.));
#997=DIRECTION('',(0.,0.,-1.));
#998=DIRECTION('',(-2.18249948587249E-17,-1.,0.));
#999=DIRECTION('',(1.,-2.18249948587249E-17,0.));
#1000=DIRECTION('',(-2.18249948587249E-17,-1.,0.));
#1001=DIRECTION('',(1.,-2.18249948587249E-17,0.));
#1002=DIRECTION('',(-2.18249948587249E-17,-1.,0.));
#1003=DIRECTION('',(1.,-2.18249948587249E-17,0.));
#1004=DIRECTION('',(2.18249948587249E-17,1.,0.));
#1005=DIRECTION('',(-1.,2.18249948587249E-17,0.));
#1006=DIRECTION('',(-2.18249948587249E-17,-1.,0.));
#1007=DIRECTION('',(1.,-2.18249948587249E-17,0.));
#1008=DIRECTION('',(-2.18249948587249E-17,-1.,0.));
#1009=DIRECTION('',(1.,-2.18249948587249E-17,0.));
#1010=DIRECTION('',(-2.18249948587249E-17,-1.,0.));
#1011=DIRECTION('',(1.,-2.18249948587249E-17,0.));
#1012=DIRECTION('',(-2.18249948587249E-17,-1.,0.));
#1013=DIRECTION('',(1.,-2.18249948587249E-17,0.));
#1014=DIRECTION('',(-2.18249948587249E-17,-1.,0.));
#1015=DIRECTION('',(1.,-2.18249948587249E-17,0.));
#1016=DIRECTION('',(2.18249948587249E-17,1.,0.));
#1017=DIRECTION('',(-1.,2.18249948587249E-17,0.));
#1018=DIRECTION('',(-2.18249948587249E-17,-1.,0.));
#1019=DIRECTION('',(1.,-2.18249948587249E-17,0.));
#1020=DIRECTION('',(-2.18249948587249E-17,-1.,0.));
#1021=DIRECTION('',(1.,-2.18249948587249E-17,0.));
#1022=DIRECTION('',(0.,-1.,0.));
#1023=DIRECTION('',(0.,0.,-1.));
#1024=DIRECTION('',(0.,-1.,0.));
#1025=DIRECTION('',(0.,0.,-1.));
#1026=DIRECTION('',(0.,-1.,0.));
#1027=DIRECTION('',(0.,0.,-1.));
#1028=DIRECTION('',(0.,-1.,0.));
#1029=DIRECTION('',(0.,0.,-1.));
#1030=DIRECTION('',(0.,-1.,0.));
#1031=DIRECTION('',(0.,0.,-1.));
#1032=DIRECTION('',(0.,-1.,0.));
#1033=DIRECTION('',(0.,0.,-1.));
#1034=DIRECTION('',(0.,-1.,0.));
#1035=DIRECTION('',(0.,0.,-1.));
#1036=DIRECTION('',(0.,-1.,0.));
#1037=DIRECTION('',(0.,0.,-1.));
#1038=DIRECTION('',(0.,-1.,0.));
#1039=DIRECTION('',(0.,0.,-1.));
#1040=DIRECTION('',(0.,1.,0.));
#1041=DIRECTION('',(0.,0.,1.));
#1042=DIRECTION('',(0.,0.,1.));
#1043=DIRECTION('',(1.,0.,0.));
#1044=DIRECTION('',(0.,0.,1.));
#1045=DIRECTION('',(1.,0.,0.));
#1046=DIRECTION('',(0.,0.,1.));
#1047=DIRECTION('',(1.,0.,0.));
#1048=CARTESIAN_POINT('',(0.,0.,0.));
#1049=CARTESIAN_POINT('',(0.254,0.1,0.));
#1050=CARTESIAN_POINT('',(0.254,0.,0.));
#1051=CARTESIAN_POINT('',(0.28,0.,0.));
#1052=CARTESIAN_POINT('',(0.254,0.07,0.));
#1053=CARTESIAN_POINT('',(0.254,0.07,0.026));
#1054=CARTESIAN_POINT('',(0.154,0.1,0.));
#1055=CARTESIAN_POINT('',(0.154,0.,0.));
#1056=CARTESIAN_POINT('',(0.18,0.,0.));
#1057=CARTESIAN_POINT('',(0.154,0.07,0.));
#1058=CARTESIAN_POINT('',(0.154,0.07,0.026));
#1059=CARTESIAN_POINT('',(0.054,0.1,0.));
#1060=CARTESIAN_POINT('',(0.054,0.,0.));
#1061=CARTESIAN_POINT('',(0.08,0.,0.));
#1062=CARTESIAN_POINT('',(0.054,0.07,0.));
#1063=CARTESIAN_POINT('',(0.054,0.07,0.026));
#1064=CARTESIAN_POINT('',(0.,0.1,0.));
#1065=CARTESIAN_POINT('',(0.154,0.1,0.));
#1066=CARTESIAN_POINT('',(0.189,0.1,0.));
#1067=CARTESIAN_POINT('',(0.254,0.1,0.));
#1068=CARTESIAN_POINT('',(0.289,0.1,0.));
#1069=CARTESIAN_POINT('',(0.054,0.1,0.));
#1070=CARTESIAN_POINT('',(0.089,0.1,0.));
#1071=CARTESIAN_POINT('',(0.212032063144111,0.1,-0.05));
#1072=CARTESIAN_POINT('',(0.212032063144111,0.1,-0.05));
#1073=CARTESIAN_POINT('',(0.205333333333333,0.1,-0.025));
#1074=CARTESIAN_POINT('',(0.205333333333333,0.1,-0.025));
#1075=CARTESIAN_POINT('',(0.198634603522555,0.1,-0.05));
#1076=CARTESIAN_POINT('',(0.198634603522555,0.1,-0.05));
#1077=CARTESIAN_POINT('',(0.109365396477445,0.1,-0.05));
#1078=CARTESIAN_POINT('',(0.109365396477445,0.1,-0.05));
#1079=CARTESIAN_POINT('',(0.102666666666667,0.1,-0.025));
#1080=CARTESIAN_POINT('',(0.102666666666667,0.1,-0.025));
#1081=CARTESIAN_POINT('',(0.0959679368558886,0.1,-0.05));
#1082=CARTESIAN_POINT('',(0.0959679368558886,0.1,-0.05));
#1083=CARTESIAN_POINT('',(0.00669872981077807,0.1,-0.05));
#1084=CARTESIAN_POINT('',(0.00669872981077807,0.1,-0.05));
#1085=CARTESIAN_POINT('',(1.0671281225251E-18,0.1,-0.025));
#1086=CARTESIAN_POINT('',(0.,0.1,-0.025));
#1087=CARTESIAN_POINT('',(0.,0.1,0.025));
#1088=CARTESIAN_POINT('',(0.,0.1,0.025));
#1089=CARTESIAN_POINT('',(0.00669872981077805,0.1,0.05));
#1090=CARTESIAN_POINT('',(0.00669872981077805,0.1,0.05));
#1091=CARTESIAN_POINT('',(0.0959679368558886,0.1,0.05));
#1092=CARTESIAN_POINT('',(0.0959679368558886,0.1,0.05));
#1093=CARTESIAN_POINT('',(0.102666666666667,0.1,0.025));
#1094=CARTESIAN_POINT('',(0.102666666666667,0.1,0.025));
#1095=CARTESIAN_POINT('',(0.109365396477445,0.1,0.05));
#1096=CARTESIAN_POINT('',(0.109365396477445,0.1,0.05));
#1097=CARTESIAN_POINT('',(0.198634603522555,0.1,0.05));
#1098=CARTESIAN_POINT('',(0.198634603522555,0.1,0.05));
#1099=CARTESIAN_POINT('',(0.205333333333333,0.1,0.025));
#1100=CARTESIAN_POINT('',(0.205333333333333,0.1,0.025));
#1101=CARTESIAN_POINT('',(0.212032063144111,0.1,0.05));
#1102=CARTESIAN_POINT('',(0.212032063144111,0.1,0.05));
#1103=CARTESIAN_POINT('',(0.301301270189222,0.1,0.05));
#1104=CARTESIAN_POINT('',(0.301301270189222,0.1,0.05));
#1105=CARTESIAN_POINT('',(0.308,0.1,0.025));
#1106=CARTESIAN_POINT('',(0.308,0.1,0.025));
#1107=CARTESIAN_POINT('',(0.308,0.1,-0.025));
#1108=CARTESIAN_POINT('',(0.308,0.1,-0.025));
#1109=CARTESIAN_POINT('',(0.301301270189222,0.1,-0.05));
#1110=CARTESIAN_POINT('',(0.301301270189222,0.1,-0.05));
#1111=CARTESIAN_POINT('',(0.,0.,0.));
#1112=CARTESIAN_POINT('',(0.205333333333333,0.,-0.025));
#1113=CARTESIAN_POINT('',(0.205333333333333,0.,-0.025));
#1114=CARTESIAN_POINT('',(0.198634603522555,0.,-0.05));
#1115=CARTESIAN_POINT('',(0.212032063144111,0.,-0.05));
#1116=CARTESIAN_POINT('',(0.212032063144111,0.,-0.05));
#1117=CARTESIAN_POINT('',(0.301301270189222,0.,-0.05));
#1118=CARTESIAN_POINT('',(0.301301270189222,0.,-0.05));
#1119=CARTESIAN_POINT('',(0.308,0.,-0.025));
#1120=CARTESIAN_POINT('',(0.308,0.,-0.025));
#1121=CARTESIAN_POINT('',(0.308,0.,0.025));
#1122=CARTESIAN_POINT('',(0.308,0.,0.025));
#1123=CARTESIAN_POINT('',(0.301301270189222,0.,0.05));
#1124=CARTESIAN_POINT('',(0.301301270189222,0.,0.05));
#1125=CARTESIAN_POINT('',(0.212032063144111,0.,0.05));
#1126=CARTESIAN_POINT('',(0.212032063144111,0.,0.05));
#1127=CARTESIAN_POINT('',(0.205333333333333,0.,0.025));
#1128=CARTESIAN_POINT('',(0.205333333333333,0.,0.025));
#1129=CARTESIAN_POINT('',(0.198634603522555,0.,0.05));
#1130=CARTESIAN_POINT('',(0.198634603522555,0.,0.05));
#1131=CARTESIAN_POINT('',(0.109365396477445,0.,0.05));
#1132=CARTESIAN_POINT('',(0.109365396477445,0.,0.05));
#1133=CARTESIAN_POINT('',(0.102666666666667,0.,0.025));
#1134=CARTESIAN_POINT('',(0.102666666666667,0.,0.025));
#1135=CARTESIAN_POINT('',(0.0959679368558886,0.,0.05));
#1136=CARTESIAN_POINT('',(0.0959679368558886,0.,0.05));
#1137=CARTESIAN_POINT('',(0.00669872981077805,0.,0.05));
#1138=CARTESIAN_POINT('',(0.00669872981077805,0.,0.05));
#1139=CARTESIAN_POINT('',(0.,0.,0.025));
#1140=CARTESIAN_POINT('',(0.,0.,0.025));
#1141=CARTESIAN_POINT('',(0.,0.,-0.025));
#1142=CARTESIAN_POINT('',(1.0671281225251E-18,0.,-0.025));
#1143=CARTESIAN_POINT('',(0.00669872981077807,0.,-0.05));
#1144=CARTESIAN_POINT('',(0.00669872981077807,0.,-0.05));
#1145=CARTESIAN_POINT('',(0.0959679368558886,0.,-0.05));
#1146=CARTESIAN_POINT('',(0.0959679368558886,0.,-0.05));
#1147=CARTESIAN_POINT('',(0.102666666666667,0.,-0.025));
#1148=CARTESIAN_POINT('',(0.102666666666667,0.,-0.025));
#1149=CARTESIAN_POINT('',(0.109365396477445,0.,-0.05));
#1150=CARTESIAN_POINT('',(0.109365396477445,0.,-0.05));
#1151=CARTESIAN_POINT('',(0.198634603522555,0.,-0.05));
#1152=CARTESIAN_POINT('',(0.,0.1,-0.025));
#1153=CARTESIAN_POINT('',(0.,0.1,0.025));
#1154=CARTESIAN_POINT('',(1.0671281225251E-18,0.1,-0.025));
#1155=CARTESIAN_POINT('',(0.,0.1,0.025));
#1156=CARTESIAN_POINT('',(0.00669872981077805,0.1,0.05));
#1157=CARTESIAN_POINT('',(0.00669872981077805,0.1,0.05));
#1158=CARTESIAN_POINT('',(0.0959679368558886,0.1,0.05));
#1159=CARTESIAN_POINT('',(0.0959679368558886,0.1,0.05));
#1160=CARTESIAN_POINT('',(0.102666666666667,0.1,0.025));
#1161=CARTESIAN_POINT('',(0.102666666666667,0.1,-0.025));
#1162=CARTESIAN_POINT('',(0.0959679368558886,0.1,-0.05));
#1163=CARTESIAN_POINT('',(0.102666666666667,0.1,-0.025));
#1164=CARTESIAN_POINT('',(0.0959679368558886,0.1,-0.05));
#1165=CARTESIAN_POINT('',(0.00669872981077807,0.1,-0.05));
#1166=CARTESIAN_POINT('',(0.00669872981077807,0.1,-0.05));
#1167=CARTESIAN_POINT('',(0.102666666666667,0.1,0.025));
#1168=CARTESIAN_POINT('',(0.109365396477445,0.1,0.05));
#1169=CARTESIAN_POINT('',(0.109365396477445,0.1,0.05));
#1170=CARTESIAN_POINT('',(0.198634603522555,0.1,0.05));
#1171=CARTESIAN_POINT('',(0.198634603522555,0.1,0.05));
#1172=CARTESIAN_POINT('',(0.205333333333333,0.1,0.025));
#1173=CARTESIAN_POINT('',(0.205333333333333,0.1,-0.025));
#1174=CARTESIAN_POINT('',(0.198634603522555,0.1,-0.05));
#1175=CARTESIAN_POINT('',(0.205333333333333,0.1,-0.025));
#1176=CARTESIAN_POINT('',(0.198634603522555,0.1,-0.05));
#1177=CARTESIAN_POINT('',(0.109365396477445,0.1,-0.05));
#1178=CARTESIAN_POINT('',(0.109365396477445,0.1,-0.05));
#1179=CARTESIAN_POINT('',(0.205333333333333,0.1,0.025));
#1180=CARTESIAN_POINT('',(0.212032063144111,0.1,0.05));
#1181=CARTESIAN_POINT('',(0.212032063144111,0.1,0.05));
#1182=CARTESIAN_POINT('',(0.301301270189222,0.1,0.05));
#1183=CARTESIAN_POINT('',(0.301301270189222,0.1,0.05));
#1184=CARTESIAN_POINT('',(0.308,0.1,0.025));
#1185=CARTESIAN_POINT('',(0.308,0.1,0.025));
#1186=CARTESIAN_POINT('',(0.308,0.1,-0.025));
#1187=CARTESIAN_POINT('',(0.308,0.1,-0.025));
#1188=CARTESIAN_POINT('',(0.301301270189222,0.1,-0.05));
#1189=CARTESIAN_POINT('',(0.301301270189222,0.1,-0.05));
#1190=CARTESIAN_POINT('',(0.212032063144111,0.1,-0.05));
#1191=CARTESIAN_POINT('',(0.212032063144111,0.1,-0.05));
#1192=CARTESIAN_POINT('',(0.054,0.07,0.));
#1193=CARTESIAN_POINT('',(0.054,0.07,0.));
#1194=CARTESIAN_POINT('',(0.089,0.07,0.));
#1195=CARTESIAN_POINT('',(0.054,0.07,0.));
#1196=CARTESIAN_POINT('',(0.154,0.07,0.));
#1197=CARTESIAN_POINT('',(0.154,0.07,0.));
#1198=CARTESIAN_POINT('',(0.189,0.07,0.));
#1199=CARTESIAN_POINT('',(0.154,0.07,0.));
#1200=CARTESIAN_POINT('',(0.254,0.07,0.));
#1201=CARTESIAN_POINT('',(0.254,0.07,0.));
#1202=CARTESIAN_POINT('',(0.289,0.07,0.));
#1203=CARTESIAN_POINT('',(0.254,0.07,0.));
#1204=CARTESIAN_POINT('',(-0.154,0.,0.));
#1205=CARTESIAN_POINT('',(-3.31739921852619E-18,-0.1,0.));
#1206=CARTESIAN_POINT('',(-3.31739921852619E-18,-0.1,0.));
#1207=CARTESIAN_POINT('',(0.026,-0.1,0.));
#1208=CARTESIAN_POINT('',(-3.41681504422874E-18,-0.104555136271329,0.));
#1209=CARTESIAN_POINT('',(-0.009,-0.104555136271329,0.));
#1210=CARTESIAN_POINT('',(8.33578201020896E-36,0.052,0.));
#1211=CARTESIAN_POINT('',(0.,0.052,0.));
#1212=CARTESIAN_POINT('',(0.,0.052,-0.0125));
#1213=CARTESIAN_POINT('',(0.,0.052,0.));
#1214=CARTESIAN_POINT('',(0.035,0.052,0.));
#1215=CARTESIAN_POINT('',(-3.46944695195361E-18,-0.106966679003209,0.));
#1216=CARTESIAN_POINT('',(-1.1348997326537E-18,0.,0.));
#1217=CARTESIAN_POINT('',(0.035,-7.63874820055372E-19,0.));
#1218=CARTESIAN_POINT('',(0.035,-9.82124768642622E-20,0.));
#1219=CARTESIAN_POINT('',(-1.1348997326537E-18,0.,0.));
#1220=CARTESIAN_POINT('',(0.026,-5.67449866326848E-19,0.));
#1221=CARTESIAN_POINT('',(-3.46944695195361E-18,-0.106966679003209,0.));
#1222=CARTESIAN_POINT('',(-1.52774964011074E-18,-0.018,0.));
#1223=CARTESIAN_POINT('',(0.026,-0.018,0.));
#1224=CARTESIAN_POINT('',(0.026,-0.018,0.));
#1225=CARTESIAN_POINT('',(-1.52774964011074E-18,-0.018,0.));
#1226=CARTESIAN_POINT('',(0.0305,-0.018,0.));
#1227=CARTESIAN_POINT('',(-1.52774964011074E-18,-0.018,0.));
#1228=CARTESIAN_POINT('',(-1.79758620260401E-18,-0.0303636483875458,0.));
#1229=CARTESIAN_POINT('',(0.026,-0.0303636483875458,0.));
#1230=CARTESIAN_POINT('',(-3.46944695195361E-18,-0.106966679003209,0.));
#1231=CARTESIAN_POINT('',(0.,0.218,0.));
#1232=CARTESIAN_POINT('',(0.,0.218,0.));
#1233=CARTESIAN_POINT('',(0.,0.218,-0.002));
#1234=CARTESIAN_POINT('',(0.,0.2075,0.));
#1235=CARTESIAN_POINT('',(0.,0.2075,0.));
#1236=CARTESIAN_POINT('',(0.,0.2075,-0.0125));
#1237=CARTESIAN_POINT('',(0.,0.052,0.));
#1238=CARTESIAN_POINT('',(0.,-0.259,0.));
#1239=CARTESIAN_POINT('',(0.,-0.252,0.));
#1240=CARTESIAN_POINT('',(0.,-0.252,-0.009));
#1241=CARTESIAN_POINT('',(0.,-0.252,0.));
#1242=CARTESIAN_POINT('',(0.,-0.259,0.));
#1243=CARTESIAN_POINT('',(0.,-0.259,-0.002));
#1244=CARTESIAN_POINT('',(0.002,-0.259,0.));
#1245=CARTESIAN_POINT('',(-0.1,0.108,0.));
#1246=CARTESIAN_POINT('',(-2.77555756156289E-17,0.108,0.));
#1247=CARTESIAN_POINT('',(0.1,0.108,0.));
#1248=MECHANICAL_DESIGN_GEOMETRIC_PRESENTATION_REPRESENTATION('',(#740,
#741),#1249);
#1249=(
GEOMETRIC_REPRESENTATION_CONTEXT(3)
GLOBAL_UNCERTAINTY_ASSIGNED_CONTEXT((#1252))
GLOBAL_UNIT_ASSIGNED_CONTEXT((#1257,#1256,#1255))
REPRESENTATION_CONTEXT('TS-103-T-A','TOP_LEVEL_ASSEMBLY_PART')
);
#1250=(
GEOMETRIC_REPRESENTATION_CONTEXT(3)
GLOBAL_UNCERTAINTY_ASSIGNED_CONTEXT((#1253))
GLOBAL_UNIT_ASSIGNED_CONTEXT((#1257,#1256,#1255))
REPRESENTATION_CONTEXT('TS-103-G-A_socket','COMPONENT_PART')
);
#1251=(
GEOMETRIC_REPRESENTATION_CONTEXT(3)
GLOBAL_UNCERTAINTY_ASSIGNED_CONTEXT((#1254))
GLOBAL_UNIT_ASSIGNED_CONTEXT((#1257,#1256,#1255))
REPRESENTATION_CONTEXT('-101-G-A_pins','COMPONENT_PART')
);
#1252=UNCERTAINTY_MEASURE_WITH_UNIT(LENGTH_MEASURE(3.93700787401575E-7),
#1257,'DISTANCE_ACCURACY_VALUE','Maximum Tolerance applied to model');
#1253=UNCERTAINTY_MEASURE_WITH_UNIT(LENGTH_MEASURE(3.93700787401575E-7),
#1257,'DISTANCE_ACCURACY_VALUE','Maximum Tolerance applied to model');
#1254=UNCERTAINTY_MEASURE_WITH_UNIT(LENGTH_MEASURE(3.93700787401575E-7),
#1257,'DISTANCE_ACCURACY_VALUE','Maximum Tolerance applied to model');
#1255=(
NAMED_UNIT(*)
SI_UNIT($,.STERADIAN.)
SOLID_ANGLE_UNIT()
);
#1256=(
NAMED_UNIT(*)
PLANE_ANGLE_UNIT()
SI_UNIT($,.RADIAN.)
);
#1257=(
CONVERSION_BASED_UNIT('INCH',#1259)
LENGTH_UNIT()
NAMED_UNIT(#1258)
);
#1258=DIMENSIONAL_EXPONENTS(1.,0.,0.,0.,0.,0.,0.);
#1259=LENGTH_MEASURE_WITH_UNIT(LENGTH_MEASURE(25.4),#1260);
#1260=(
LENGTH_UNIT()
NAMED_UNIT(*)
SI_UNIT(.MILLI.,.METRE.)
);
#1261=PRODUCT_DEFINITION_SHAPE('','',#1268);
#1262=PRODUCT_DEFINITION_SHAPE('','',#1269);
#1263=PRODUCT_DEFINITION_SHAPE(' ','NAUO PRDDFN',#27);
#1264=PRODUCT_DEFINITION_SHAPE('','',#1270);
#1265=PRODUCT_DEFINITION_SHAPE(' ','NAUO PRDDFN',#28);
#1266=PRODUCT_DEFINITION_SHAPE(' ','NAUO PRDDFN',#29);
#1267=PRODUCT_DEFINITION_SHAPE(' ','NAUO PRDDFN',#30);
#1268=PRODUCT_DEFINITION('','',#1274,#1271);
#1269=PRODUCT_DEFINITION('','',#1275,#1272);
#1270=PRODUCT_DEFINITION('','',#1276,#1273);
#1271=PRODUCT_DEFINITION_CONTEXT('',#1290,'design');
#1272=PRODUCT_DEFINITION_CONTEXT('',#1290,'design');
#1273=PRODUCT_DEFINITION_CONTEXT('',#1290,'design');
#1274=PRODUCT_DEFINITION_FORMATION_WITH_SPECIFIED_SOURCE('','',#1280,
 .NOT_KNOWN.);
#1275=PRODUCT_DEFINITION_FORMATION_WITH_SPECIFIED_SOURCE('','',#1281,
 .NOT_KNOWN.);
#1276=PRODUCT_DEFINITION_FORMATION_WITH_SPECIFIED_SOURCE('','',#1282,
 .NOT_KNOWN.);
#1277=PRODUCT_RELATED_PRODUCT_CATEGORY('','',(#1280));
#1278=PRODUCT_RELATED_PRODUCT_CATEGORY('','',(#1281));
#1279=PRODUCT_RELATED_PRODUCT_CATEGORY('','',(#1282));
#1280=PRODUCT('TS-103-T-A','TS-103-T-A','TS-103-T-A',(#1286));
#1281=PRODUCT('TS-103-G-A_socket','TS-103-G-A_socket',
'TS-103-G-A_socket',(#1287));
#1282=PRODUCT('-101-G-A_pins','-101-G-A_pins','-101-G-A_pins',(#1288));
#1283=PRODUCT_CATEGORY('','');
#1284=PRODUCT_CATEGORY('','');
#1285=PRODUCT_CATEGORY('','');
#1286=PRODUCT_CONTEXT('',#1290,'mechanical');
#1287=PRODUCT_CONTEXT('',#1290,'mechanical');
#1288=PRODUCT_CONTEXT('',#1290,'mechanical');
#1289=APPLICATION_PROTOCOL_DEFINITION('international standard',
'automotive_design',2010,#1290);
#1290=APPLICATION_CONTEXT(
'core data for automotive mechanical design processes');
ENDSEC;
END-ISO-10303-21;
